<svg id="Layer_1" enable-background="new 0 0 256 256" height="512" viewBox="0 0 256 256" width="512" xmlns="http://www.w3.org/2000/svg"><g><path d="m172.037 19.716h-103.989c-4.902 0-8.913 4.011-8.913 8.913v22.683 15.6 110.085h121.815v-148.368c0-4.902-4.013-8.913-8.913-8.913z" fill="#f46275"/><path d="m59.135 176.997v28.523c0 4.902 4.01 8.913 8.913 8.913h70.793 15.603 17.592c4.9 0 8.913-4.01 8.913-8.913v-28.523z" fill="#67beeb"/><path d="m67.534 66.912v-15.6-22.683c0-4.902 4.01-8.913 8.913-8.913h-8.399c-4.902 0-8.913 4.011-8.913 8.913v22.683 15.6 110.085h8.399z" fill="#f43075"/><path d="m67.534 205.52v-28.523h-8.399v28.523c0 4.902 4.01 8.913 8.913 8.913h8.399c-4.903 0-8.913-4.011-8.913-8.913z" fill="#6377e7"/><path d="m126.044 195.871c0 3.313-2.688 6.002-6.004 6.002-3.314 0-6.002-2.689-6.002-6.002 0-3.314 2.687-6.002 6.002-6.002 3.317 0 6.004 2.688 6.004 6.002z" fill="#f46275"/><g><g><path d="m150.721 107.295h-61.359c1.065-16.013 14.394-28.669 30.68-28.669s29.614 12.656 30.679 28.669z" fill="#f8af23"/></g></g><g><g><circle cx="120.042" cy="65.097" fill="#f8af23" r="13.529"/></g></g><path d="m213.601 163.932c-.342.955-.729 1.873-1.153 2.783l8.555 8.555-16.822 16.822-8.555-8.555c-.91.423-1.837.81-2.783 1.153v12.103h-23.783v-12.103c-.946-.342-1.873-.729-2.783-1.153l-8.555 8.555-16.822-16.822 8.555-8.555c-.423-.91-.81-1.828-1.153-2.783h-12.102v-23.783h12.103c.342-.946.729-1.873 1.153-2.783l-8.555-8.555 16.822-16.822 8.555 8.564c.91-.423 1.837-.82 2.783-1.162v-12.094h23.783v12.094c.946.342 1.873.738 2.783 1.162l8.555-8.564 16.822 16.822-8.555 8.555c.423.91.811 1.837 1.153 2.783h12.094v23.783z" fill="#9e9e9e"/><circle cx="180.952" cy="152.042" fill="#67beeb" r="15.145"/><g><path d="m205.206 163.932c-.342.955-.729 1.873-1.153 2.783l8.555 8.555-12.623 12.622 4.199 4.199 16.822-16.822-8.555-8.555c.423-.909.811-1.828 1.153-2.783h-8.398z" fill="#cecece"/></g><g><path d="m184.449 184.691h8.399v12.101h-8.399z" fill="#cecece"/></g><g><path d="m217.301 140.149h8.399v23.783h-8.399z" fill="#cecece"/></g><g><path d="m204.054 137.367c.423.91.811 1.837 1.153 2.783h8.399c-.342-.946-.729-1.873-1.153-2.783l8.555-8.555-16.822-16.822-4.197 4.202 12.62 12.62z" fill="#cecece"/></g><g><path d="m192.848 119.392v-12.094h-8.399v12.094z" fill="#cecece"/></g><path d="m82.473 72.311-22.711-36.783-22.711 36.783 15.853-4.176v26.531h13.716v-26.531z" fill="#67beeb"/><path d="m203.663 72.311-22.711-36.783-22.711 36.783 15.853-4.176v26.531h13.716v-26.531z" fill="#67beeb"/><g><path d="m59.762 35.528-22.711 36.783 10.03-2.642 16.88-27.34z" fill="#6377e7"/></g><g><path d="m180.952 35.528 22.711 36.783-10.03-2.642-16.88-27.34z" fill="#63e2e7"/></g><g><path d="m207.172 234.784h-158.344c-.828 0-1.5.671-1.5 1.5s.672 1.5 1.5 1.5h158.344c.828 0 1.5-.671 1.5-1.5s-.672-1.5-1.5-1.5z" fill="#3f3679"/></g><g><path d="m232.003 234.784h-12.75c-.828 0-1.5.671-1.5 1.5s.672 1.5 1.5 1.5h12.75c.828 0 1.5-.671 1.5-1.5s-.672-1.5-1.5-1.5z" fill="#3f3679"/></g><g><path d="m36.747 234.784h-12.75c-.828 0-1.5.671-1.5 1.5s.672 1.5 1.5 1.5h12.75c.828 0 1.5-.671 1.5-1.5s-.672-1.5-1.5-1.5z" fill="#3f3679"/></g><g fill="#3f3679"><path d="m120.041 188.369c-4.136 0-7.501 3.365-7.501 7.502s3.365 7.502 7.501 7.502c4.139 0 7.505-3.365 7.505-7.502s-3.366-7.502-7.505-7.502zm0 12.004c-2.481 0-4.501-2.02-4.501-4.502s2.02-4.502 4.501-4.502c2.484 0 4.505 2.02 4.505 4.502s-2.021 4.502-4.505 4.502z"/><path d="m136.652 36.704h9.619c.828 0 1.5-.671 1.5-1.5s-.672-1.5-1.5-1.5h-9.619c-.828 0-1.5.671-1.5 1.5s.672 1.5 1.5 1.5z"/><path d="m105.013 65.097c0 5.511 2.99 10.325 7.425 12.941-13.373 3.258-23.625 14.901-24.574 29.157-.027.414.118.821.401 1.125.284.303.681.475 1.096.475h61.36c.415 0 .812-.172 1.096-.475.283-.303.429-.71.401-1.125-.949-14.257-11.2-25.9-24.573-29.157 4.434-2.616 7.424-7.43 7.424-12.941 0-8.287-6.741-15.029-15.028-15.029s-15.028 6.742-15.028 15.029zm44.061 40.698h-58.065c1.771-14.518 14.226-25.669 29.033-25.669s27.262 11.151 29.032 25.669zm-17.004-40.698c0 6.633-5.396 12.029-12.028 12.029s-12.029-5.396-12.029-12.029 5.396-12.029 12.029-12.029 12.028 5.396 12.028 12.029z"/><path d="m164.307 152.042c0 9.178 7.467 16.645 16.646 16.645 9.178 0 16.645-7.467 16.645-16.645s-7.467-16.645-16.645-16.645c-9.18 0-16.646 7.467-16.646 16.645zm30.29 0c0 7.524-6.121 13.645-13.645 13.645s-13.646-6.121-13.646-13.645 6.121-13.645 13.646-13.645c7.524 0 13.645 6.121 13.645 13.645z"/><path d="m125.02 150.545h-8.02c-.828 0-1.5.671-1.5 1.5s.672 1.5 1.5 1.5h8.02c.828 0 1.5-.671 1.5-1.5s-.672-1.5-1.5-1.5z"/><path d="m125.02 139.5h-34.395c-.828 0-1.5.671-1.5 1.5s.672 1.5 1.5 1.5h34.395c.828 0 1.5-.671 1.5-1.5s-.672-1.5-1.5-1.5z"/><path d="m125.02 128.455h-24.145c-.828 0-1.5.671-1.5 1.5s.672 1.5 1.5 1.5h24.145c.828 0 1.5-.671 1.5-1.5s-.672-1.5-1.5-1.5z"/><path d="m216.125 212.933h-25.5c-.828 0-1.5.671-1.5 1.5s.672 1.5 1.5 1.5h25.5c.828 0 1.5-.671 1.5-1.5s-.672-1.5-1.5-1.5z"/><path d="m240.375 212.933h-11.372c-.828 0-1.5.671-1.5 1.5s.672 1.5 1.5 1.5h11.372c.828 0 1.5-.671 1.5-1.5s-.672-1.5-1.5-1.5z"/><path d="m36.875 215.933h16.75c.828 0 1.5-.671 1.5-1.5s-.672-1.5-1.5-1.5h-16.75c-.828 0-1.5.671-1.5 1.5s.672 1.5 1.5 1.5z"/><path d="m28.872 214.433c0-.829-.672-1.5-1.5-1.5h-11.747c-.828 0-1.5.671-1.5 1.5s.672 1.5 1.5 1.5h11.747c.828 0 1.5-.672 1.5-1.5z"/><path d="m37.433 73.762 13.972-3.681v24.585c0 .829.672 1.5 1.5 1.5h4.731v80.831 28.522c0 5.742 4.671 10.413 10.412 10.413h103.989c5.742 0 10.413-4.671 10.413-10.413v-7.23h10.395c.828 0 1.5-.671 1.5-1.5v-11.064c.314-.126.631-.258.952-.398l7.826 7.826c.586.586 1.535.586 2.121 0l16.819-16.819c.586-.585.586-1.535 0-2.121l-7.826-7.827c.14-.321.271-.637.397-.952h11.064c.828 0 1.5-.671 1.5-1.5v-23.786c0-.829-.672-1.5-1.5-1.5h-11.064c-.126-.314-.258-.631-.397-.952l7.826-7.826c.586-.585.586-1.536 0-2.121l-16.819-16.819c-.562-.562-1.559-.562-2.121 0l-7.826 7.826c-.321-.14-.638-.272-.952-.398v-11.064c0-.829-.672-1.5-1.5-1.5h-10.395v-9.628h5.359c.828 0 1.5-.671 1.5-1.5v-24.584l13.972 3.681c.594.156 1.222-.065 1.587-.558s.394-1.159.071-1.681l-22.489-36.425v-6.469c0-5.742-4.671-10.413-10.413-10.413h-103.989c-5.741 0-10.412 4.671-10.412 10.413v7.486l-21.862 35.407c-.322.522-.294 1.188.071 1.681s.997.714 1.588.558zm142.017 131.758c0 4.087-3.325 7.413-7.413 7.413h-103.989c-4.087 0-7.412-3.325-7.412-7.413v-27.022h80.531.458c.116 0 .229-.016.338-.041l14.698 14.697c.586.586 1.535.586 2.121 0l7.826-7.826c.32.14.637.272.951.398v11.064c0 .829.672 1.5 1.5 1.5h10.392v7.23zm12.882-84.72c.861.313 1.731.676 2.658 1.109.571.267 1.25.147 1.695-.299l7.498-7.498 14.698 14.698-7.498 7.498c-.446.446-.565 1.123-.299 1.694.43.923.793 1.793 1.109 2.66.216.592.779.986 1.409.986h10.596v20.786h-10.596c-.63 0-1.193.394-1.409.986-.315.865-.679 1.735-1.109 2.66-.267.572-.147 1.249.299 1.694l7.498 7.499-14.698 14.698-7.498-7.498c-.446-.446-1.125-.565-1.695-.299-.927.433-1.797.796-2.658 1.109-.593.216-.987.779-.987 1.41v10.596h-20.786v-10.596c0-.63-.395-1.193-.986-1.409-.862-.314-1.732-.677-2.658-1.11-.571-.266-1.25-.147-1.695.299l-7.498 7.498-14.698-14.698 7.498-7.499c.446-.446.565-1.123.299-1.694-.435-.934-.798-1.803-1.109-2.659-.215-.593-.778-.987-1.409-.987h-10.596v-20.786h10.596c.631 0 1.194-.395 1.409-.987.312-.857.675-1.728 1.109-2.659.267-.572.147-1.249-.299-1.694l-7.498-7.498 14.698-14.698 7.498 7.498c.444.446 1.123.565 1.695.299.926-.433 1.796-.795 2.658-1.11.592-.216.986-.779.986-1.409v-10.596h10.363c.01 0 .019.003.029.003s.019-.003.029-.003h10.365v10.596c0 .631.394 1.194.987 1.41zm-4.141-54.115c-.448-.118-.929-.021-1.298.263-.368.284-.584.723-.584 1.188v25.031h-10.716v-25.032c0-.465-.216-.904-.584-1.188-.369-.284-.848-.38-1.298-.263l-12.223 3.22 19.463-31.521 19.462 31.521zm-120.143-45.469h103.989c4.088 0 7.413 3.326 7.413 7.413v6.476l-22.486 36.418c-.322.522-.294 1.188.071 1.681s.996.713 1.587.558l13.972-3.681v24.585c0 .829.672 1.5 1.5 1.5h5.356v9.628h-10.392c-.828 0-1.5.671-1.5 1.5v11.064c-.314.126-.631.258-.951.398l-7.826-7.826c-.562-.562-1.559-.562-2.121 0l-16.819 16.819c-.586.585-.586 1.536 0 2.121l7.826 7.826c-.14.321-.272.638-.398.952h-11.063c-.828 0-1.5.671-1.5 1.5v23.786c0 .829.672 1.5 1.5 1.5h11.063c.126.313.258.63.398.952l-7.826 7.827c-.351.351-.465.829-.396 1.284h-78.809v-21.952h44.614c.828 0 1.5-.671 1.5-1.5s-.672-1.5-1.5-1.5h-44.614v-8.045h18.951c.828 0 1.5-.671 1.5-1.5s-.672-1.5-1.5-1.5h-18.951v-8.045h29.989c.828 0 1.5-.671 1.5-1.5s-.672-1.5-1.5-1.5h-29.989v-32.288h5.984c.828 0 1.5-.671 1.5-1.5v-24.585l13.972 3.681c.595.156 1.222-.065 1.587-.558s.394-1.159.071-1.681l-21.499-34.82h61.228c.828 0 1.5-.671 1.5-1.5s-.672-1.5-1.5-1.5h-62.843v-5.074c0-4.088 3.325-7.414 7.412-7.414zm-8.286 17.167 19.463 31.521-12.223-3.22c-.449-.118-.929-.021-1.298.263-.368.284-.584.723-.584 1.188v25.031h-10.716v-25.031c0-.465-.216-.904-.584-1.188-.369-.284-.848-.38-1.298-.263l-12.222 3.22z"/></g></g></svg>