<?xml version="1.0" encoding="iso-8859-1"?>
<!-- Generator: Adobe Illustrator 19.0.0, SVG Export Plug-In . SVG Version: 6.00 Build 0)  -->
<svg version="1.1" id="Capa_1" xmlns="http://www.w3.org/2000/svg" xmlns:xlink="http://www.w3.org/1999/xlink" x="0px" y="0px"
	 viewBox="0 0 464 464" style="enable-background:new 0 0 464 464;" xml:space="preserve">
<path style="fill:#B3B3B3;" d="M346.416,436.832l-44.968-89.936H162.552l-44.968,89.936H346.416z"/>
<path style="fill:#29ABE2;" d="M48,0h368c22.091,0,40,17.909,40,40v272c0,22.091-17.909,40-40,40H48c-22.091,0-40-17.909-40-40V40
	C8,17.909,25.909,0,48,0z"/>
<g>
	<path style="fill:#0071BC;" d="M208,64h216v16H208V64z"/>
	<path style="fill:#0071BC;" d="M208,96h136v16H208V96z"/>
	<path style="fill:#0071BC;" d="M208,128h136v16H208V128z"/>
	<path style="fill:#0071BC;" d="M272,32h152v16H272V32z"/>
	<path style="fill:#0071BC;" d="M240,32h16v16h-16V32z"/>
</g>
<path style="fill:#E6E6E6;" d="M416,352H48c-22.091,0-40-17.909-40-40v-24h448v24C456,334.091,438.091,352,416,352z"/>
<path style="fill:#B3B3B3;" d="M224,312h16v16h-16V312z"/>
<path style="fill:#E6E6E6;" d="M72,432h320c8.837,0,16,7.163,16,16l0,0c0,8.837-7.163,16-16,16H72c-8.837,0-16-7.163-16-16l0,0
	C56,439.163,63.163,432,72,432z"/>
<g>
	<path style="fill:#DA4836;" d="M114.344,77.656l-16-16c-3.123-3.124-3.123-8.188,0-11.312l16-16l11.312,11.312L115.312,56
		l10.344,10.344L114.344,77.656z"/>
	<path style="fill:#DA4836;" d="M173.656,77.656l-11.312-11.312L172.688,56l-10.344-10.344l11.312-11.312l16,16
		c3.123,3.124,3.123,8.188,0,11.312L173.656,77.656z"/>
	<path style="fill:#DA4836;" d="M128.404,77.464l16.016-47.998l15.17,5.062l-16.016,47.998L128.404,77.464z"/>
</g>
<path style="fill:#FBB03B;" d="M172.584,288l4.184-12.872L208,262.464V232.8l-31.2-12.656l-7.568-23.288l17.824-28.592l-17.44-24
	l-32.736,8.144l-19.816-14.4l-2.36-33.552L86.488,95.28L64.84,121.056H40.336L18.68,95.28L8,98.752V288H172.584z"/>
<path style="fill:#29ABE2;" d="M106.576,288c22.234-29.871,16.043-72.11-13.828-94.344C67.229,174.661,31.904,176.088,8,197.08V288
	H106.576z"/>
<path style="fill:#FBB03B;" d="M264,208h16v40h-16V208z"/>
<path style="fill:#F15A24;" d="M296,192h16v56h-16V192z"/>
<path style="fill:#FBB03B;" d="M328,200h16v48h-16V200z"/>
<path style="fill:#F15A24;" d="M360,160h16v88h-16V160z"/>
<path style="fill:#FBB03B;" d="M392,176h16v72h-16V176z"/>
<path style="fill:#0071BC;" d="M248,240h176v16H248V240z"/>
<g>
</g>
<g>
</g>
<g>
</g>
<g>
</g>
<g>
</g>
<g>
</g>
<g>
</g>
<g>
</g>
<g>
</g>
<g>
</g>
<g>
</g>
<g>
</g>
<g>
</g>
<g>
</g>
<g>
</g>
</svg>
